<svg xmlns="http://www.w3.org/2000/svg" data-name="Layer 1" viewBox="0 0 75 93.75" x="0px" y="0px"><title>Artboard 45@5x</title><path d="M68.58,19.52v-8a2.24,2.24,0,0,0-2.24-2.24h-3V8A3.48,3.48,0,0,0,59.89,4.5H13.27A3.48,3.48,0,0,0,9.79,8V13.5H6.42v2H9.79v5.67H6.42v2H9.79v5.66H6.42v2H9.79V36.5H6.42v2H9.79v5.67H6.42v2H9.79v5.66H6.42v2H9.79V59.5H6.42v2H9.79V67a3.48,3.48,0,0,0,3.48,3.48H59.89A3.48,3.48,0,0,0,63.37,67V51.87l4.12-3a2.25,2.25,0,0,0,1.09-1.92v-8a2.24,2.24,0,0,0-2.24-2.24h-.91l2.06-1.51a2.25,2.25,0,0,0,1.09-1.92v-8A2.24,2.24,0,0,0,66.34,23h-.91l2.06-1.51A2.25,2.25,0,0,0,68.58,19.52ZM61.37,67a1.48,1.48,0,0,1-1.48,1.48H13.27A1.48,1.48,0,0,1,11.79,67V61.5h2.37V62h2V59h-2v.5H11.79V53.83h2.37v.5h2v-3h-2v.5H11.79V46.17h2.37v.5h2v-3h-2v.5H11.79V38.5h2.37V39h2V36h-2v.5H11.79V30.83h2.37v.5h2v-3h-2v.5H11.79V23.17h2.37v.5h2v-3h-2v.5H11.79V15.5h2.37V16h2V13h-2v.5H11.79V8A1.48,1.48,0,0,1,13.27,6.5H59.89A1.48,1.48,0,0,1,61.37,8V67ZM66.58,38.9v8c0,.08,0,.16-.19.25l-3,2.2V38.66h3A.24.24,0,0,1,66.58,38.9Zm0-13.71v8c0,.08,0,.16-.19.26l-3,2.2V25h3A.24.24,0,0,1,66.58,25.19Zm0-5.67c0,.09,0,.17-.19.26l-3,2.2V11.24h3a.24.24,0,0,1,.24.24Z"/><path d="M38.59,16.22a14,14,0,0,0-14,14,13.8,13.8,0,0,0,2.85,8.44,8.12,8.12,0,0,0,.8,1,13.92,13.92,0,0,0,20.67,0h0l0,0,.28-.31v0a7.83,7.83,0,0,0,.51-.61,13.75,13.75,0,0,0,2.86-8.45A14,14,0,0,0,38.59,16.22Zm-3,9.85a3,3,0,1,1,3.53,3l-.51,0-.51,0A3,3,0,0,1,35.57,26.07Zm3,5A4.2,4.2,0,0,0,39.1,31a8.66,8.66,0,0,1,8,7.54l-.33.33-.39.37c-.17.15-.36.29-.54.43l-.42.32-.58.38c-.15.09-.3.19-.45.27s-.42.22-.63.32l-.46.22c-.22.1-.44.18-.67.26l-.46.17c-.24.08-.49.13-.73.2L41,42c-.27.06-.54.09-.82.13l-.39.06c-.41,0-.82.07-1.23.07s-.83,0-1.24-.07l-.37,0c-.28,0-.56-.08-.84-.14l-.41-.1L35,41.65l-.38-.14c-.26-.1-.52-.19-.77-.3L33.45,41c-.25-.12-.5-.24-.75-.38l-.32-.2a7.8,7.8,0,0,1-.71-.46l-.31-.24a7.67,7.67,0,0,1-.64-.52l-.34-.31L30,38.57a8.65,8.65,0,0,1,8-7.53A4.57,4.57,0,0,0,38.59,31.09Zm10.17,5.48a10.69,10.69,0,0,0-6.64-6.93,5,5,0,1,0-7.06,0,10.65,10.65,0,0,0-6.63,6.93,11.73,11.73,0,0,1-1.84-6.35,12,12,0,1,1,24,0A11.8,11.8,0,0,1,48.76,36.57Z"/><rect x="27.59" y="49.89" width="22" height="2"/><rect x="27.59" y="56.78" width="22" height="2"/><text x="0" y="90" fill="#000000" font-size="5px" font-weight="bold" font-family="'Helvetica Neue', Helvetica, Arial-Unicode, Arial, Sans-serif">Created by Bernd Lakenbrink</text><text x="0" y="95" fill="#000000" font-size="5px" font-weight="bold" font-family="'Helvetica Neue', Helvetica, Arial-Unicode, Arial, Sans-serif">from the Noun Project</text></svg>