<svg xmlns="http://www.w3.org/2000/svg" data-name="Layer 1" viewBox="0 0 104 130" x="0px" y="0px"><path d="M2.86,93.92a1,1,0,0,1-.43-.09,1,1,0,0,1-.57-.91V72.39a1,1,0,0,1,.37-.78L28.31,50.67l.05,0L42.91,39c.22-.18,5.26-4,9.54-4h0a3.55,3.55,0,0,1,2.7,1.27A3.46,3.46,0,0,1,56,39c-.36,2.18-1.84,4.82-4.42,7.88a7,7,0,0,1,.81,2,8.21,8.21,0,0,1-3,8.24L3.48,93.71A1,1,0,0,1,2.86,93.92Zm1-21v18L48.08,55.52a6.21,6.21,0,0,0,2.35-6.2,5.55,5.55,0,0,0-.29-.87l-.77.82-6.3,6.3A12.51,12.51,0,0,1,37.23,59a7.25,7.25,0,0,1-6.07-.77,7.84,7.84,0,0,1-2.91-4.92ZM30,51.86c.34,2.29,1.11,3.87,2.29,4.7a5.37,5.37,0,0,0,4.44.47,10.58,10.58,0,0,0,4.91-2.87L48,47.87c.49-.52.95-1,1.37-1.49A1,1,0,0,1,49.6,46a.91.91,0,0,1,.16-.11c3.07-3.57,4-5.87,4.24-7.23a1.46,1.46,0,0,0-.33-1.18,1.54,1.54,0,0,0-1.19-.56h0c-3.59,0-8.25,3.57-8.3,3.61Z"/><path d="M53.42,66.59c-2.76,0-6.8-1.27-8-8.3a1,1,0,1,1,2-.33c.79,4.68,3,6.9,6.6,6.6a9,9,0,0,0,5.56-2.73L64,57.38c6.72-6.36,8.55-10.13,8.9-12.18a1.77,1.77,0,0,0-.52-1.58,1.8,1.8,0,0,0-1.61-.51C64,44.33,49.86,56.62,49.72,56.74a1,1,0,1,1-1.31-1.5c.59-.52,14.65-12.78,22-14.1a3.82,3.82,0,0,1,3.38,1.06,3.76,3.76,0,0,1,1.08,3.33c-.58,3.43-3.77,7.89-9.47,13.28L61,63.24a11,11,0,0,1-6.81,3.31C53.94,66.57,53.68,66.59,53.42,66.59Z"/><path d="M22.41,102a1,1,0,0,1-.78-.38,1,1,0,0,1,.15-1.4L63.41,66.9l.09-.07c10.09-6.37,5.92-13.62,5.74-13.92a1,1,0,1,1,1.71-1c0,.09,5.4,9.18-6.34,16.62L23,101.78A1,1,0,0,1,22.41,102Z"/><path d="M62.18,82.5c-2.85,0-6.51-1.34-7.82-7.68a1,1,0,0,1,2-.4c1,4.68,3.33,6.63,7.23,6a11.09,11.09,0,0,0,5.93-3.23l3.42-3.42c9.95-9,9.33-13,9.07-13.79-3-1.51-10.82,3.42-15.15,7a1,1,0,1,1-1.27-1.55c1.29-1.06,12.77-10.25,17.73-7a.92.92,0,0,1,.25.23c.37.5,3.31,5.17-9.25,16.56L70.9,78.56a13.06,13.06,0,0,1-7,3.79A9.89,9.89,0,0,1,62.18,82.5Z"/><path d="M52,102H6.37a4.52,4.52,0,0,1-4.51-4.51V72.39a1,1,0,0,1,2,0V97.48A2.52,2.52,0,0,0,6.37,100H52a2.5,2.5,0,0,0,1.55-.54L71.88,85c7.27-7.17,3.94-12.6,3.8-12.83a1,1,0,0,1,1.67-1.09c.19.28,4.44,7-4.11,15.39l-.08.07L54.79,101A4.54,4.54,0,0,1,52,102ZM72.54,85.77h0Z"/><path d="M101.14,24a1.09,1.09,0,0,1-.26,0l-19-5.16a1,1,0,0,1-.73-1V3a1,1,0,0,1,1-1h19a1,1,0,0,1,1,1V23a1,1,0,0,1-.39.8A1,1,0,0,1,101.14,24Zm-18-6.92,17,4.62V4h-17Z"/><path d="M91.4,35.86a4.25,4.25,0,0,1-4.25-4.25V19.46a1,1,0,0,1,2,0V31.61a2.25,2.25,0,0,0,4.5,0V21.23a1,1,0,0,1,2,0V31.61A4.25,4.25,0,0,1,91.4,35.86Z"/><path d="M87,58.23a2,2,0,0,1-1.33-.52l-4.3-3.93a1.89,1.89,0,0,1-.63-1.35,1.87,1.87,0,0,1,.5-1.39c1.77-1.93,7.51-8.84,7.06-16.88a1,1,0,0,1,2-.12c.5,8.83-5.68,16.28-7.59,18.35l4.31,3.85c6.14-8.38,5.43-22,5.43-22.08a1,1,0,1,1,2-.12c0,.59.76,14.42-5.88,23.41a2,2,0,0,1-1.37.77Z"/><text x="0" y="119" fill="#000000" font-size="5px" font-weight="bold" font-family="'Helvetica Neue', Helvetica, Arial-Unicode, Arial, Sans-serif">Created by Bernd Lakenbrink</text><text x="0" y="124" fill="#000000" font-size="5px" font-weight="bold" font-family="'Helvetica Neue', Helvetica, Arial-Unicode, Arial, Sans-serif">from the Noun Project</text></svg>