<?xml version="1.0" encoding="utf-8"?>
<!-- Generator: Adobe Illustrator 25.0.0, SVG Export Plug-In . SVG Version: 6.00 Build 0)  -->
<svg version="1.1" id="Camada_1" xmlns="http://www.w3.org/2000/svg" xmlns:xlink="http://www.w3.org/1999/xlink" x="0px" y="0px"
	 viewBox="0 0 100 125" style="enable-background:new 0 0 100 125;" xml:space="preserve">
<g>
	<path d="M51.2,95l-0.6,0c-0.4,0-0.9,0-1.3,0h-0.7c-2.3,0-4.6-0.1-7.7-1c-4.5-1.3-10.3-6.9-12.5-14.9c-1.9-6.7-0.7-13,3.5-18.6
		c1.7-2.3,4.2-4.7,9.1-4.7c2.9,0,6.4,0.8,10.8,2.4c1.3-0.6,3.6-1.7,6.7-1.7c1.1,0,2.3,0.1,3.4,0.4c5.8,1.3,11.3,6.8,10.4,16.4
		c-0.9,10-9,19.5-15,20.8c-1.8,0.2-2.7,0.4-3.4,0.6C53.1,94.9,52.4,95,51.2,95z M49.4,93c0.5,0,0.9,0,1.3,0l0.5,0
		c1,0,1.5-0.1,2.3-0.3c0.7-0.2,1.7-0.4,3.5-0.6C62.3,91,69.6,82,70.4,73.1c0.8-9-4.2-13.3-8.9-14.4c-1-0.2-2-0.3-3-0.3
		c-3,0-5.1,1.1-6.2,1.6L52,60.2l-0.4-0.1c-4.4-1.6-7.8-2.4-10.5-2.4c-4.1,0-6,1.9-7.6,3.9c-3.9,5.2-4.9,10.8-3.2,17
		c2,7.4,7.2,12.4,11.2,13.6c2.9,0.8,5,0.9,7.2,0.9C48.6,93,49.4,93,49.4,93z"/>
</g>
<g>
	<path d="M64.4,5.8c0-0.8-0.7-1-1.3-0.6c-0.6,0.4-1.3,1.5-1.3,2.4s0.5,1,0.8,1c0.7,0.7,1.3,1.5,1,3c-0.3,1.5-5.2,11.7-7.2,16.2
		s-5,10.5-6,18.8S49.1,59,49.1,59l2.9,0.6c0,0-0.5-7.6-0.1-11.1c0.4-3.5,1.9-10.8,4-15.4s5.9-12.7,7.9-17.2s2-5.1,1.8-6.9
		S65.7,6.5,64.4,5.8z"/>
</g>
</svg>
