<svg xmlns="http://www.w3.org/2000/svg" xmlns:xlink="http://www.w3.org/1999/xlink" version="1.1" x="0px" y="0px" viewBox="0 0 50 62.5" enable-background="new 0 0 50 50" xml:space="preserve"><path d="M45.999,22.107H37.21l-2.804-11.777l-0.128-0.538l0,0l-0.36-1.514c-0.512-2.146-2.668-3.477-4.82-2.967L3.076,11.506  c-1.04,0.247-1.921,0.885-2.482,1.795c-0.56,0.911-0.732,1.984-0.484,3.024l0.359,1.509c0,0.001,0,0.003,0,0.004l0.99,4.158  l2.051,8.617c0.438,1.836,2.083,3.075,3.893,3.075c0.306,0,0.617-0.035,0.927-0.109l6.917-1.646v8.862  c0,2.207,1.795,4.002,4.002,4.002h26.75c2.206,0,4.001-1.795,4.001-4.002V26.108C50,23.902,48.205,22.107,45.999,22.107z   M2.417,21.703l-0.859-3.61l31.862-7.583l0.895,3.759L2.453,21.852L2.417,21.703z M1.446,13.825c0.42-0.683,1.081-1.161,1.861-1.347  l26.021-6.194c1.612-0.382,3.232,0.617,3.616,2.226l0.244,1.027L1.327,17.121l-0.245-1.027C0.897,15.313,1.026,14.508,1.446,13.825z   M8.099,32.606c-1.611,0.384-3.232-0.614-3.616-2.226l-1.798-7.556l31.863-7.583l1.634,6.866H19.25  c-2.207,0-4.002,1.795-4.002,4.001v4.798L8.099,32.606z M49,40.796c0,1.655-1.347,3.002-3.001,3.002H19.25  c-1.655,0-3.002-1.347-3.002-3.002V26.108c0-1.655,1.347-3.001,3.002-3.001h26.75c1.654,0,3.001,1.346,3.001,3.001V40.796z"/><path d="M23.696,38.072h-4.859c-0.276,0-0.5,0.224-0.5,0.5v1.822c0,0.276,0.224,0.5,0.5,0.5h4.859c0.276,0,0.5-0.224,0.5-0.5v-1.822  C24.196,38.296,23.972,38.072,23.696,38.072z M23.196,39.895h-3.859v-0.822h3.859V39.895z"/><path d="M38.839,38.072H33.98c-0.276,0-0.5,0.224-0.5,0.5v1.822c0,0.276,0.224,0.5,0.5,0.5h4.858c0.276,0,0.5-0.224,0.5-0.5v-1.822  C39.339,38.296,39.115,38.072,38.839,38.072z M38.339,39.895H34.48v-0.822h3.858V39.895z"/><path d="M31.269,38.072h-4.859c-0.276,0-0.5,0.224-0.5,0.5v1.822c0,0.276,0.224,0.5,0.5,0.5h4.859c0.276,0,0.5-0.224,0.5-0.5v-1.822  C31.769,38.296,31.545,38.072,31.269,38.072z M30.769,39.895h-3.859v-0.822h3.859V39.895z"/><path d="M46.411,38.072h-4.859c-0.276,0-0.5,0.224-0.5,0.5v1.822c0,0.276,0.224,0.5,0.5,0.5h4.859c0.276,0,0.5-0.224,0.5-0.5v-1.822  C46.911,38.296,46.688,38.072,46.411,38.072z M45.911,39.895h-3.859v-0.822h3.859V39.895z"/><path d="M24.161,25.657h-4.157c-0.919,0-1.667,0.748-1.667,1.667v4.157c0,0.919,0.748,1.667,1.667,1.667h4.157  c0.919,0,1.667-0.748,1.667-1.667v-4.157C25.828,26.405,25.08,25.657,24.161,25.657z M20.003,26.657h1.457v1.578  c0,0.368-0.299,0.668-0.667,0.668h-1.457v-1.579C19.336,26.956,19.636,26.657,20.003,26.657z M19.336,31.481v-1.578h1.457  c0.919,0,1.667-0.748,1.667-1.668v-1.578h1.7c0.368,0,0.667,0.299,0.667,0.667v2.127h-0.813c-0.92,0-1.668,0.748-1.668,1.667v1.03  h-2.344C19.636,32.148,19.336,31.85,19.336,31.481z M24.161,32.148h-0.813v-1.03c0-0.368,0.3-0.667,0.668-0.667h0.813v1.03  C24.828,31.85,24.528,32.148,24.161,32.148z"/><text x="0" y="65" fill="#000000" font-size="5px" font-weight="bold" font-family="'Helvetica Neue', Helvetica, Arial-Unicode, Arial, Sans-serif">Created by Med Marki</text><text x="0" y="70" fill="#000000" font-size="5px" font-weight="bold" font-family="'Helvetica Neue', Helvetica, Arial-Unicode, Arial, Sans-serif">from the Noun Project</text></svg>