<svg xmlns="http://www.w3.org/2000/svg" data-name="Layer 1" viewBox="0 0 100 125" x="0px" y="0px"><title>rating icon</title><path d="M19.46,47.91a.76.76,0,0,0-.6-.52l-5.28-.77L11.2,41.85a.76.76,0,0,0-1.36,0L7.45,46.62l-5.27.77a.76.76,0,0,0-.42,1.3l3.83,3.73-.91,5.26a.76.76,0,0,0,1.1.8L10.51,56l4.73,2.48a.76.76,0,0,0,1.1-.8l-.91-5.27,3.83-3.73A.76.76,0,0,0,19.46,47.91Zm19.67,0a.76.76,0,0,0-.6-.52l-5.28-.77-2.38-4.77a.76.76,0,0,0-1.36,0l-2.38,4.77-5.27.77a.76.76,0,0,0-.42,1.3l3.83,3.73-.91,5.26a.76.76,0,0,0,1.1.8L30.17,56l4.73,2.48a.76.76,0,0,0,1.1-.8l-.91-5.27,3.83-3.73A.76.76,0,0,0,39.13,47.91Zm19.85,0a.76.76,0,0,0-.6-.52l-5.28-.77-2.38-4.77a.76.76,0,0,0-1.36,0L47,46.62l-5.27.77a.76.76,0,0,0-.42,1.3l3.83,3.73-.91,5.26a.76.76,0,0,0,1.1.8L50,56l4.73,2.48a.76.76,0,0,0,1.1-.8L55,52.41l3.83-3.73A.76.76,0,0,0,59,47.91Zm19.71,0a.76.76,0,0,0-.6-.52l-5.28-.77-2.38-4.77a.76.76,0,0,0-1.36,0l-2.38,4.77-5.27.77a.76.76,0,0,0-.42,1.3l3.83,3.73-.91,5.26a.76.76,0,0,0,1.1.8L69.73,56l4.73,2.48a.76.76,0,0,0,1.1-.8l-.91-5.27,3.83-3.73A.76.76,0,0,0,78.69,47.91Zm19.75,0a.76.76,0,0,0-.6-.52l-5.28-.77-2.38-4.77a.76.76,0,0,0-1.36,0l-2.38,4.77-5.27.77a.76.76,0,0,0-.42,1.3l3.83,3.73-.91,5.26a.76.76,0,0,0,1.1.8L89.48,56l4.73,2.48a.76.76,0,0,0,1.1-.8l-.91-5.27,3.83-3.73A.76.76,0,0,0,98.44,47.91Z"/><text x="0" y="115" fill="#000000" font-size="5px" font-weight="bold" font-family="'Helvetica Neue', Helvetica, Arial-Unicode, Arial, Sans-serif">Created by ICONZ</text><text x="0" y="120" fill="#000000" font-size="5px" font-weight="bold" font-family="'Helvetica Neue', Helvetica, Arial-Unicode, Arial, Sans-serif">from the Noun Project</text></svg>